<svg fill="none" xmlns="http://www.w3.org/2000/svg" viewBox="0 0 32 32">
  <path d="M11.78 3.593h.185c.51 0 .696.41.696 1.05v19.066c0 .82-.186 1.368-.742 1.368l-2.226-.045c-.557 0-.742-.457-.742-1.369V7.79l-.974.229c-.464 0-.696-.365-.696-1.004V5.646c0-.548.186-.913.65-1.004L11.78 3.64v-.046ZM19.2 20.06l.046 1.368.279.593.278.274.37.045h1.021c.464 0 .789.365.789.913v.866c0 .548-.279.913-.835.913h-1.484l-1.067-.046a3.933 3.933 0 0 1-1.02-.456 2.624 2.624 0 0 1-.928-.867 4.956 4.956 0 0 1-.463-1.46c-.186-.638-.232-1.368-.232-2.189v-7.298h-.696c-.51 0-.742-.456-.742-1.095v-.775c0-.639.232-1.05.742-1.05h.696v-.045l.278-5.61c0-.685.232-1.141.742-1.141h1.438c.556 0 .742.456.742 1.14v5.61h1.67c.51 0 .741.457.741 1.096v.82c0 .64-.232 1.05-.742 1.05h-1.67v7.39l.047-.046Zm4.36 7.161c0-.912.139-1.46.695-1.46.093 0 .186 0 .65.183l.51.137.092-.046.186-.32c.139-.273.185-.729.185-1.368l-.278-1.505-2.829-11.768v-.41c0-.548.14-.913.556-.913h1.763c.232 0 .464.137.603.274.139.182.232.41.278.73l1.577 8.21 1.206-8.12c.046-.364.139-.592.278-.775a.753.753 0 0 1 .603-.274h1.206c.463 0 .649.365.649.913l-.046.365L28.8 24.53c-.232 1.14-.464 2.007-.696 2.6a3.007 3.007 0 0 1-.927 1.368c-.418.274-.881.41-1.438.41H25.6c-.928 0-1.53-.273-1.901-.775-.14-.182-.186-.456-.186-.912h.046ZM.65 4.733l3.802-.958h.232c.464 0 .65.365.65 1.004V23.89c0 .821-.186 1.323-.743 1.323h-2.18c-.556 0-.741-.502-.741-1.368V7.88l-.928.273C.186 8.154 0 7.744 0 7.151V5.782c0-.547.186-.912.65-1.049Z" fill="#fff"/>
</svg>
