<svg fill="none" xmlns="http://www.w3.org/2000/svg" viewBox="0 0 32 32">
  <path fill-rule="evenodd" clip-rule="evenodd" d="M16.013 1C7.158 1 0 8.104 0 16.893c0 7.025 4.587 12.972 10.95 15.077.795.158 1.086-.342 1.086-.763 0-.368-.026-1.631-.026-2.947-4.454.947-5.382-1.895-5.382-1.895-.716-1.842-1.777-2.315-1.777-2.315-1.458-.974.107-.974.107-.974 1.617.106 2.465 1.632 2.465 1.632 1.432 2.42 3.739 1.736 4.666 1.315.133-1.026.557-1.736 1.008-2.13-3.553-.37-7.29-1.738-7.29-7.842 0-1.737.635-3.158 1.643-4.263-.16-.394-.716-2.026.159-4.21 0 0 1.352-.421 4.4 1.631a15.613 15.613 0 0 1 4.004-.526c1.352 0 2.73.185 4.003.526 3.05-2.052 4.402-1.63 4.402-1.63.875 2.183.317 3.815.158 4.21 1.035 1.104 1.644 2.525 1.644 4.262 0 6.105-3.738 7.446-7.317 7.841.583.5 1.087 1.447 1.087 2.947 0 2.131-.026 3.842-.026 4.368 0 .42.291.921 1.087.763C27.413 29.865 32 23.918 32 16.893 32.026 8.104 24.842 1 16.013 1Z" fill="#fff"/>
</svg>
